<?xml version="1.0" standalone="no"?><!DOCTYPE svg PUBLIC "-//W3C//DTD SVG 1.1//EN" "http://www.w3.org/Graphics/SVG/1.1/DTD/svg11.dtd"><svg t="1595410213477" class="icon" viewBox="0 0 1024 1024" version="1.1" xmlns="http://www.w3.org/2000/svg" p-id="1758" xmlns:xlink="http://www.w3.org/1999/xlink" width="128" height="128"><defs><style type="text/css"></style></defs><path d="M841.413 724.167c-19.827-42.2-67.105-70.972-139.548-85.55a651.664 651.664 0 0 0-101.802-14.962 1102.743 1102.743 0 0 0-188.351 0 699.783 699.783 0 0 0-104.09 14.578c-72.824 14.962-120.102 42.967-140.31 86.317a129.233 129.233 0 0 0 0 110.102c25.546 43.018 68.66 72.5 117.815 80.563 11.723 3.884 24.619 0.898 33.476-7.75 8.856-8.648 12.21-21.529 8.703-33.435-3.507-11.906-13.293-20.869-25.403-23.265-30.498-3.695-58.108-19.947-76.255-44.885a65.173 65.173 0 0 1-5.72-26.854 63.629 63.629 0 0 1 5.72-26.47c10.675-21.868 43.084-38.364 95.32-49.873a626.244 626.244 0 0 1 92.65-13.043 977.313 977.313 0 0 1 177.295 0 594.03 594.03 0 0 1 93.794 13.427c51.091 10.358 83.881 27.621 94.176 49.872a61.336 61.336 0 0 1 0 52.941c-10.295 21.867-43.085 38.363-95.32 49.872a621.317 621.317 0 0 1-92.27 13.044c-35.077 3.069-70.154 4.22-104.85 3.836-16.849 1.825-29.62 16.134-29.62 33.184 0 17.05 12.771 31.359 29.62 33.184h11.819c29.74 0 61.767 0 99.514-4.22a652.79 652.79 0 0 0 101.42-14.578c73.587-14.962 120.865-43.734 141.073-85.933 16.565-34.72 16.984-75.042 1.144-110.102z" fill="#1C9DFF" p-id="1759"></path><path d="M503.6 534.27c93.95 0.154 178.735-56.67 214.795-143.96 36.06-87.289 16.288-187.84-50.09-254.738s-166.28-86.957-253.094-50.818c-86.814 36.14-143.429 121.354-143.429 215.884 0 128.881 103.727 233.42 231.818 233.632z m0-400.512c67.271 0 127.911 40.795 153.62 103.344 25.707 62.549 11.415 134.522-36.208 182.328-47.623 47.807-119.187 62.022-181.293 36.012-62.107-26.01-102.511-87.118-102.357-154.804 0-44.326 17.526-86.83 48.713-118.138 31.187-31.307 73.47-48.844 117.525-48.742z" fill="#200E32" p-id="1760"></path></svg>