<?xml version="1.0" standalone="no"?><!DOCTYPE svg PUBLIC "-//W3C//DTD SVG 1.1//EN" "http://www.w3.org/Graphics/SVG/1.1/DTD/svg11.dtd"><svg t="1595410131726" class="icon" viewBox="0 0 1024 1024" version="1.1" xmlns="http://www.w3.org/2000/svg" p-id="1315" xmlns:xlink="http://www.w3.org/1999/xlink" width="128" height="128"><defs><style type="text/css"></style></defs><path d="M653.196 91.85c5.819-5.408 13.53-8.221 21.409-7.81 16.243 1.013 28.776 14.907 28.344 31.421v44.294C831.989 172.248 898 243.42 898 371.379v353.968C898 867.692 816.698 940 656.703 940H367.297C207.302 940 126 867.692 126 725.347V371.38c0-85.18 29.09-146.13 88.761-181.717l0.405-0.27a29.458 29.458 0 0 1 31.01-0.885c9.838 5.7 15.647 16.564 14.997 28.044-0.651 11.48-7.65 21.595-18.068 26.112-39.532 23.472-58.18 64.358-58.18 128.716v11.357h544.13c16.272 0 29.463 13.39 29.463 29.907 0 16.518-13.191 29.908-29.463 29.908h-544.13v282.796c0 108.652 52.96 153.702 182.372 154.46h289.406c127.548 0 181.998-46.187 181.998-154.838V371c0-94.644-41.397-140.452-135.752-151.43v28.771c-2.176 15.336-15.404 26.531-30.656 25.947-15.253-0.584-27.611-12.76-28.643-28.218V112.811l0.022-0.5c0.412-7.816 3.827-15.166 9.524-20.46zM350.7 88.556c15.19 0 27.954 11.583 29.65 26.905v41.265h168.572c16.272 0 29.463 13.39 29.463 29.908 0 16.517-13.191 29.907-29.463 29.907H379.604v29.908c0 7.998-3.155 15.663-8.761 21.282-5.606 5.62-13.196 8.726-21.075 8.625l-0.483-0.016c-15.897-0.667-28.441-14.06-28.236-30.27V115.461l0.054-0.458c1.9-15.094 14.56-26.447 29.597-26.447z" fill="#333333" p-id="1316"></path><path d="M691.76 538.33c-20.597 0-37.294 16.95-37.294 37.858 0 20.909 16.697 37.858 37.294 37.858 20.598 0 37.295-16.95 37.295-37.858 0-10.106-3.98-19.793-11.055-26.904-7.075-7.11-16.657-11.054-26.613-10.953h0.373zM512.746 538.33c-20.597 0-37.295 16.95-37.295 37.858 0 20.909 16.698 37.858 37.295 37.858s37.295-16.95 37.295-37.858c0-20.908-16.698-37.857-37.295-37.857zM334.104 538.33c-20.597 0-37.294 16.95-37.294 37.858 0 20.909 16.697 37.858 37.294 37.858 20.598 0 37.295-16.95 37.295-37.858 0-10.106-3.98-19.793-11.055-26.904-7.075-7.11-16.657-11.054-26.613-10.953h0.373zM691.76 691.654c-20.597 0-37.294 16.95-37.294 37.858 0 20.908 16.697 37.857 37.294 37.857 20.598 0 37.295-16.95 37.295-37.857 0-10.107-3.98-19.794-11.055-26.904-7.075-7.111-16.657-11.055-26.613-10.954h0.373zM512.746 691.654c-20.597 0-37.295 16.95-37.295 37.858 0 20.908 16.698 37.857 37.295 37.857s37.295-16.95 37.295-37.857c0-20.908-16.698-37.858-37.295-37.858zM334.104 691.654c-20.597 0-37.294 16.95-37.294 37.858 0 20.908 16.697 37.857 37.294 37.857 20.598 0 37.295-16.95 37.295-37.857 0-10.107-3.98-19.794-11.055-26.904-7.075-7.111-16.657-11.055-26.613-10.954h0.373z" fill="#1C9DFF" p-id="1317"></path></svg>