<?xml version="1.0" standalone="no"?><!DOCTYPE svg PUBLIC "-//W3C//DTD SVG 1.1//EN" "http://www.w3.org/Graphics/SVG/1.1/DTD/svg11.dtd"><svg t="1595410117759" class="icon" viewBox="0 0 1024 1024" version="1.1" xmlns="http://www.w3.org/2000/svg" p-id="1168" xmlns:xlink="http://www.w3.org/1999/xlink" width="128" height="128"><defs><style type="text/css"></style></defs><path d="M652.153 115H378.015C264.933 115 194 193.84 194 320.333v522.092C194 879.193 223.15 909 259.108 909c10.886 0 21.6-2.776 31.183-8.06l223.08-123.69 259.745 124.392a28.199 28.199 0 0 0 22.043 0.104c7.07-2.958 12.7-8.668 15.651-15.872 4.354-13.276-0.923-27.86-12.679-35.04L540.1 727.494c-16.858-9.475-37.284-9.475-54.142 0l-223.423 123.34a8.401 8.401 0 0 1-8.224 0c-2.436-1.603-3.868-4.398-3.77-7.358V320.333c0.344-93.556 46.262-146.817 128.503-146.817h274.138c105.543 0 120.963 87.6 120.963 140.16v23.826l-1.028 58.166v306.598c0 16.062 12.734 29.083 28.442 29.083 15.575 0 28.254-12.808 28.442-28.733v-388.94C830 191.035 762.15 115 652.153 115z" fill="#333333" p-id="1169"></path><path d="M477.39 337.502c-7.545 0.274-14.674 3.604-19.816 9.256-5.142 5.653-7.875 13.164-7.598 20.878 0.362 15.326 12.426 27.663 27.414 28.032h296.754c0 16.062-0.187-42.24 0-58.166H477.39z" fill="#1C9DFF" p-id="1170"></path></svg>