<?xml version="1.0" standalone="no"?><!DOCTYPE svg PUBLIC "-//W3C//DTD SVG 1.1//EN" "http://www.w3.org/Graphics/SVG/1.1/DTD/svg11.dtd"><svg t="1595410142804" class="icon" viewBox="0 0 1024 1024" version="1.1" xmlns="http://www.w3.org/2000/svg" p-id="1464" xmlns:xlink="http://www.w3.org/1999/xlink" width="128" height="128"><defs><style type="text/css"></style></defs><path d="M765.79 619.722c-18.565-4.926-37.692 5.774-43.1 24.111C684.7 778.635 556.277 867.996 415.922 857.294c-140.356-10.701-253.58-118.487-270.465-257.473a184.616 184.616 0 0 1-1.924-32.53c-0.333-139.207 97.447-259.606 234.356-288.57 19.128-3.804 31.533-22.31 27.708-41.332-3.826-19.024-22.433-31.36-41.561-27.556C194.409 245.024 72.924 393.812 73.11 566.142a225.348 225.348 0 0 0 2.694 42.482c13.787 120.26 87.028 225.739 195.228 281.157 108.2 55.418 237.076 53.46 343.523-5.219 86.752-47.242 150.498-127.49 176.634-222.358a34.28 34.28 0 0 0-3.668-26.582 34.62 34.62 0 0 0-21.73-15.9z" fill="#333333" p-id="1465"></path><path d="M950.505 421.858c-30.164-184.284-187.545-321.38-375.202-326.84-18.782-0.432-36.902 6.915-50.027 20.284-12.679 13.078-19.243 30.857-18.086 48.988l19.24 287.42c3 36.276 33.44 64.22 70.039 64.296h4.617l288.617-19.136c17.33-0.983 33.547-8.815 45.039-21.754 11.492-12.939 17.306-29.91 16.148-47.135v-6.123h-0.385z m-354.036 25.26l-19.242-282.446c150.986 6.093 277.415 115.755 304.01 263.692L596.47 447.117z" fill="#1C9DFF" p-id="1466"></path></svg>